<?xml version="1.0" encoding="UTF-8"?>
<!DOCTYPE svg PUBLIC "-//W3C//DTD SVG 1.1//EN" "http://www.w3.org/Graphics/SVG/1.1/DTD/svg11.dtd">
<svg xmlns="http://www.w3.org/2000/svg" version="1.1" width="1000px" height="1080px" style="shape-rendering:geometricPrecision; text-rendering:geometricPrecision; image-rendering:optimizeQuality; fill-rule:evenodd; clip-rule:evenodd" xmlns:xlink="http://www.w3.org/1999/xlink">
<g><path style="opacity:0.982" fill="var(--text-color)" d="M 492.5,227.5 C 552.269,228.037 598.269,253.037 630.5,302.5C 658.605,354.583 658.439,406.917 630,459.5C 599.568,506.639 556.068,531.306 499.5,533.5C 448.611,532.354 407.444,512.021 376,472.5C 344.562,426.815 337.896,377.482 356,324.5C 382.783,265.891 428.283,233.557 492.5,227.5 Z"/></g>
<g><path style="opacity:0.977" fill="var(--text-color)" d="M 202.5,282.5 C 261.598,281.944 302.098,308.944 324,363.5C 336.95,410.367 326.784,451.034 293.5,485.5C 257.193,517.402 215.859,525.902 169.5,511C 128.011,493.17 103.178,462.004 95,417.5C 90.0908,358.467 114.257,316.3 167.5,291C 179.195,287.325 190.862,284.491 202.5,282.5 Z"/></g>
<g><path style="opacity:0.977" fill="var(--text-color)" d="M 778.5,282.5 C 832.654,282.648 871.487,306.981 895,355.5C 909.572,396.227 904.905,434.561 881,470.5C 844.743,514.006 799.243,527.673 744.5,511.5C 688.921,486.267 663.587,443.267 668.5,382.5C 677.303,338.949 701.969,308.282 742.5,290.5C 748.26,288.813 753.927,286.98 759.5,285C 765.988,284.216 772.322,283.383 778.5,282.5 Z"/></g>
<g><path style="opacity:0.974" fill="var(--text-color)" d="M 100.5,498.5 C 101.552,498.351 102.552,498.517 103.5,499C 139.768,536.759 184.101,552.093 236.5,545C 244.77,542.674 253.104,540.341 261.5,538C 267.516,535.55 273.35,532.716 279,529.5C 280.28,529.613 281.113,530.28 281.5,531.5C 218.295,607.283 190.962,695.949 199.5,797.5C 157.508,799.061 115.841,796.227 74.5,789C 60.2123,784.787 46.8789,778.454 34.5,770C 23.7801,760.428 15.7801,749.428 10.5,737C 4.66837,715.53 2.83504,693.363 5,670.5C 11.6362,608.906 36.4696,557.072 79.5,515C 86.4238,509.224 93.4238,503.724 100.5,498.5 Z"/></g>
<g><path style="opacity:0.976" fill="var(--text-color)" d="M 893.5,498.5 C 894.873,498.343 896.207,498.51 897.5,499C 953.678,542.678 985.344,600.345 992.5,672C 992.616,686.337 992.449,700.837 992,715.5C 988.747,752.468 969.247,776.968 933.5,789C 921.874,791.592 910.207,793.925 898.5,796C 864.85,797.365 831.183,797.865 797.5,797.5C 806.744,696.623 779.411,607.957 715.5,531.5C 715.887,530.28 716.72,529.613 718,529.5C 746.556,544.939 777.056,550.106 809.5,545C 834.207,540.143 856.541,530.143 876.5,515C 882.626,509.944 888.293,504.444 893.5,498.5 Z"/></g>
<g><path style="opacity:0.988" fill="var(--text-color)" d="M 354.5,507.5 C 356.484,507.383 358.15,508.05 359.5,509.5C 385.423,538.308 417.423,557.141 455.5,566C 517.209,578.739 572.543,565.405 621.5,526C 627.683,519.483 634.183,513.316 641,507.5C 674.203,530.869 701.369,559.869 722.5,594.5C 754.09,650.704 769.256,711.038 768,775.5C 765.948,788.978 763.781,802.145 761.5,815C 756.471,829.893 748.971,843.393 739,855.5C 720.748,873.278 698.914,884.444 673.5,889C 659.092,891.203 644.758,893.203 630.5,895C 553.5,895.667 476.5,895.667 399.5,895C 380.925,893.179 362.258,891.179 343.5,889C 334.276,886.489 324.943,884.489 315.5,883C 303.8,879.103 292.467,874.437 281.5,869C 255.107,852.595 238.94,829.095 233,798.5C 223.014,710.987 244.347,632.32 297,562.5C 314.191,541.802 333.358,523.469 354.5,507.5 Z"/></g>
</svg>
