<?xml version="1.0" encoding="UTF-8"?>
<!DOCTYPE svg PUBLIC "-//W3C//DTD SVG 1.1//EN" "http://www.w3.org/Graphics/SVG/1.1/DTD/svg11.dtd">
<svg xmlns="http://www.w3.org/2000/svg" version="1.1" width="1000px" height="1080px" style="shape-rendering:geometricPrecision; text-rendering:geometricPrecision; image-rendering:optimizeQuality; fill-rule:evenodd; clip-rule:evenodd" xmlns:xlink="http://www.w3.org/1999/xlink">
<g><path style="opacity:0.943" fill="currentColor" d="M 225.5,225.5 C 325.771,223.492 416.771,250.825 498.5,307.5C 610.865,229.576 734.198,207.742 868.5,242C 876.063,244.411 883.397,247.411 890.5,251C 898.833,257.499 903.667,265.999 905,276.5C 905.5,288.829 905.667,301.162 905.5,313.5C 920.519,313.405 935.519,313.905 950.5,315C 969.477,315.866 981.644,325.366 987,343.5C 987.667,504.833 987.667,666.167 987,827.5C 980.258,847.29 966.425,856.79 945.5,856C 923.706,848.777 901.706,842.11 879.5,836C 818.268,821.326 756.101,813.492 693,812.5C 638.478,812.076 584.978,819.91 532.5,836C 521.032,840.198 509.699,844.698 498.5,849.5C 454.483,830.203 408.649,818.87 361,815.5C 311.893,810.919 262.893,811.919 214,818.5C 160.183,824.822 107.35,836.989 55.5,855C 43.9104,857.268 33.2438,855.102 23.5,848.5C 20.516,845.015 17.3493,841.682 14,838.5C 12.2156,834.599 10.7156,830.599 9.5,826.5C 8.16667,665.833 8.16667,505.167 9.5,344.5C 14.2394,327.258 25.4061,317.258 43,314.5C 44,314.833 45,315.167 46,315.5C 61.1309,314.213 76.2976,313.213 91.5,312.5C 89.8068,298.062 90.3068,283.729 93,269.5C 95.2774,266.064 97.1107,262.397 98.5,258.5C 102.019,255.146 105.686,251.98 109.5,249C 116.833,246.333 124.167,243.667 131.5,241C 144.248,238.484 156.915,235.651 169.5,232.5C 188.464,230.144 207.131,227.811 225.5,225.5 Z M 221.5,263.5 C 280.066,260.271 336.4,269.105 390.5,290C 402.476,295.29 414.476,300.623 426.5,306C 444.353,316.181 461.853,327.014 479,338.5C 479.167,487.07 479.667,635.57 480.5,784C 371.372,717.106 254.039,699.273 128.5,730.5C 128.333,580.5 128.5,430.5 129,280.5C 159.144,271.127 189.977,265.461 221.5,263.5 Z M 727.5,263.5 C 757.298,262.572 786.964,264.072 816.5,268C 832.43,271.863 848.43,275.53 864.5,279C 866.116,279.615 867.449,280.615 868.5,282C 867.178,431.802 867.178,581.135 868.5,730C 854.06,728.036 839.727,725.203 825.5,721.5C 749.924,709.548 675.591,716.215 602.5,741.5C 587.531,747.068 572.865,753.235 558.5,760C 544.967,767.596 531.633,775.429 518.5,783.5C 517.167,635.167 517.167,486.833 518.5,338.5C 580.804,293.539 650.471,268.539 727.5,263.5 Z M 393.5,782.5 C 380.871,780.671 368.204,779.005 355.5,777.5C 354.833,777.833 354.167,778.167 353.5,778.5C 309.5,775.723 265.5,776.223 221.5,780C 220.051,781.117 218.384,781.784 216.5,782C 197.756,783.679 179.089,786.013 160.5,789C 146.677,792.456 132.677,795.456 118.5,798C 104.725,802.254 90.725,805.92 76.5,809C 75.8333,809.667 75.1667,810.333 74.5,811C 65.2481,813.098 56.2481,815.931 47.5,819.5C 46.1677,663.265 46.1677,507.098 47.5,351C 61.5449,350.816 75.5449,350.316 89.5,349.5C 90.1667,479.833 90.8333,610.167 91.5,740.5C 95.506,752.338 103.173,760.838 114.5,766C 119.357,767.671 124.357,768.505 129.5,768.5C 144.649,765.794 159.649,762.627 174.5,759C 238.852,748.407 302.185,752.407 364.5,771C 374.463,774.323 384.13,778.157 393.5,782.5 Z M 603.5,782.5 C 604.997,781.396 606.664,780.396 608.5,779.5C 690.776,749.205 774.442,745.372 859.5,768C 884.3,771.029 899.8,760.529 906,736.5C 906.167,607.499 906.667,478.499 907.5,349.5C 921.453,350.513 935.12,351.013 948.5,351C 949.167,352 949.833,353 950.5,354C 949.167,508.333 949.167,662.667 950.5,817C 949.874,817.75 949.374,818.584 949,819.5C 946.72,817.963 944.22,816.797 941.5,816C 843.881,784.602 743.548,771.936 640.5,778C 627.959,778.774 615.625,780.274 603.5,782.5 Z"/></g>
</svg>
