<?xml version="1.0" encoding="UTF-8"?>
<!DOCTYPE svg PUBLIC "-//W3C//DTD SVG 1.1//EN" "http://www.w3.org/Graphics/SVG/1.1/DTD/svg11.dtd">
<svg xmlns="http://www.w3.org/2000/svg" version="1.1" width="1000px" height="1080px" style="shape-rendering:geometricPrecision; text-rendering:geometricPrecision; image-rendering:optimizeQuality; fill-rule:evenodd; clip-rule:evenodd" xmlns:xlink="http://www.w3.org/1999/xlink">
<g><path style="opacity:0.962" fill="currentColor" d="M 490.5,51.5 C 495.985,50.3483 501.651,50.1816 507.5,51C 506.167,51.3333 504.833,51.6667 503.5,52C 506.5,52.3333 509.5,52.6667 512.5,53C 538.717,76.6605 565.383,101.827 592.5,128.5C 593.689,129.429 595.022,129.762 596.5,129.5C 597.091,132.614 598.758,135.114 601.5,137C 727.95,256.596 854.616,376.762 981.5,497.5C 990.658,510.048 990.825,522.715 982,535.5C 974.858,544.281 965.692,548.447 954.5,548C 949.986,547.067 945.653,545.567 941.5,543.5C 889.537,494.519 837.87,445.852 786.5,397.5C 785.147,396.476 784.48,395.143 784.5,393.5C 783.325,393.719 782.325,393.386 781.5,392.5C 752.272,364.611 722.939,336.611 693.5,308.5C 692.675,307.614 691.675,307.281 690.5,307.5C 690.024,305.007 688.69,303.007 686.5,301.5C 646.067,263.871 606.734,226.371 568.5,189C 567.552,188.517 566.552,188.351 565.5,188.5C 545.198,167.502 524.198,147.169 502.5,127.5C 501.614,126.675 501.281,125.675 501.5,124.5C 500.448,124.351 499.448,124.517 498.5,125C 488.412,135.088 478.745,144.755 469.5,154C 410.355,209.311 351.355,264.811 292.5,320.5C 291.614,321.325 291.281,322.325 291.5,323.5C 290.325,323.281 289.325,323.614 288.5,324.5C 282.31,331.19 275.644,337.357 268.5,343C 262.701,348.956 256.368,355.122 249.5,361.5C 248.614,362.325 248.281,363.325 248.5,364.5C 247.325,364.281 246.325,364.614 245.5,365.5C 223.876,386.122 202.209,406.789 180.5,427.5C 179.614,428.325 179.281,429.325 179.5,430.5C 178.448,430.351 177.448,430.517 176.5,431C 136.265,469.738 95.5987,507.905 54.5,545.5C 39.8171,550.237 27.1504,546.903 16.5,535.5C 7.93515,521.785 8.76848,508.451 19,495.5C 31.6481,484.352 43.8147,472.686 55.5,460.5C 76.6145,440.888 97.6145,421.055 118.5,401C 121.434,398.539 124.434,396.373 127.5,394.5C 127.281,393.325 127.614,392.325 128.5,391.5C 247.83,278.968 365.997,166.634 483,54.5C 484.68,55.6034 486.18,55.2701 487.5,53.5C 490.785,52.6764 494.118,52.1764 497.5,52C 495.19,51.5034 492.857,51.3367 490.5,51.5 Z"/></g>
<g><path style="opacity:0.991" fill="currentColor" d="M 182.5,490.5 C 197.126,476.877 211.793,463.21 226.5,449.5C 227.386,448.675 227.719,447.675 227.5,446.5C 228.675,446.719 229.675,446.386 230.5,445.5C 234.044,441.058 238.044,437.058 242.5,433.5C 243.386,432.675 243.719,431.675 243.5,430.5C 248.54,427.644 253.207,424.144 257.5,420C 287.937,389.399 318.937,359.232 350.5,329.5C 351.325,328.614 352.325,328.281 353.5,328.5C 353.679,326.394 354.679,324.728 356.5,323.5C 392.657,289.51 428.657,255.343 464.5,221C 467.48,218.204 469.814,215.038 471.5,211.5C 472.675,211.719 473.675,211.386 474.5,210.5C 480.17,205.15 485.836,199.816 491.5,194.5C 494.41,194.086 497.077,193.086 499.5,191.5C 501.556,193.019 503.89,193.853 506.5,194C 533.706,219.041 560.04,244.874 585.5,271.5C 586.675,271.281 587.675,271.614 588.5,272.5C 652.776,334.954 716.443,397.12 779.5,459C 800.514,479.681 821.848,500.015 843.5,520C 843.663,675.293 843.497,830.793 843,986.5C 841.248,990.588 838.415,993.754 834.5,996C 835.167,996.333 835.833,996.667 836.5,997C 757.5,997.667 678.5,997.667 599.5,997C 599.833,996.667 600.167,996.333 600.5,996C 599.668,902.903 599.168,809.737 599,716.5C 597.821,711.964 594.988,708.797 590.5,707C 529.833,706.333 469.167,706.333 408.5,707C 406.999,708.252 405.332,709.252 403.5,710C 402.853,711.609 402.02,713.109 401,714.5C 401.163,808.545 400.33,902.378 398.5,996C 399.167,996.333 399.833,996.667 400.5,997C 321.5,997.667 242.5,997.667 163.5,997C 164.167,996.667 164.833,996.333 165.5,996C 160.388,994.286 157.221,990.786 156,985.5C 155.333,830.167 155.333,674.833 156,519.5C 161.775,510.057 169.275,502.224 178.5,496C 178.167,495.667 177.833,495.333 177.5,495C 180,494.329 181.667,492.829 182.5,490.5 Z"/></g>
<g><path style="opacity:0.004" fill="currentColor" d="M 678.5,207.5 C 679.833,208.167 679.833,208.167 678.5,207.5 Z"/></g>
<g><path style="opacity:0.043" fill="currentColor" d="M 182.5,490.5 C 180.027,490.053 179.86,489.053 182,487.5C 182.483,488.448 182.649,489.448 182.5,490.5 Z"/></g>
<g><path style="opacity:0.004" fill="currentColor" d="M 101.5,504.5 C 102.833,505.167 102.833,505.167 101.5,504.5 Z"/></g>
<g><path style="opacity:0.004" fill="currentColor" d="M 986.5,530.5 C 987.833,531.167 987.833,531.167 986.5,530.5 Z"/></g>
<g><path style="opacity:0.008" fill="currentColor" d="M 935.5,542.5 C 935.897,541.475 936.563,541.308 937.5,542C 936.906,542.464 936.239,542.631 935.5,542.5 Z"/></g>
<g><path style="opacity:0.008" fill="currentColor" d="M 34.5,549.5 C 34.8966,548.475 35.5632,548.308 36.5,549C 35.9056,549.464 35.2389,549.631 34.5,549.5 Z"/></g>
<g><path style="opacity:0.004" fill="currentColor" d="M 409.5,707.5 C 410.833,708.167 410.833,708.167 409.5,707.5 Z"/></g>
<g><path style="opacity:0.004" fill="currentColor" d="M 585.5,707.5 C 586.833,708.167 586.833,708.167 585.5,707.5 Z"/></g>
</svg>
