<?xml version="1.0" encoding="UTF-8"?>
<!DOCTYPE svg PUBLIC "-//W3C//DTD SVG 1.1//EN" "http://www.w3.org/Graphics/SVG/1.1/DTD/svg11.dtd">
<svg xmlns="http://www.w3.org/2000/svg" version="1.1" width="1080px" height="1080px" style="shape-rendering:geometricPrecision; text-rendering:geometricPrecision; image-rendering:optimizeQuality; fill-rule:evenodd; clip-rule:evenodd" xmlns:xlink="http://www.w3.org/1999/xlink">
<g><path style="opacity:0.023" fill="currentColor" d="M 426.5,-0.5 C 428.833,-0.5 431.167,-0.5 433.5,-0.5C 432.895,1.02568 431.729,2.02568 430,2.5C 429.517,3.44802 429.351,4.44802 429.5,5.5C 428.5,5.5 427.5,5.5 426.5,5.5C 426.616,8.91032 424.95,10.2436 421.5,9.5C 421.762,10.9778 421.429,12.3112 420.5,13.5C 419.914,13.2907 419.414,12.9574 419,12.5C 417.206,15.701 415.206,18.701 413,21.5C 411.989,22.3366 410.822,22.67 409.5,22.5C 409.833,25.5 408.5,26.8333 405.5,26.5C 405.097,29.4059 403.431,31.2393 400.5,32C 400.957,32.414 401.291,32.914 401.5,33.5C 400.088,34.8064 398.421,35.6397 396.5,36C 395.167,38.6667 393.167,40.6667 390.5,42C 391.863,44.1293 391.529,44.6293 389.5,43.5C 388.155,44.3467 387.155,45.5134 386.5,47C 377.998,50.5028 369.332,53.1694 360.5,55C 374.219,44.2808 388.219,33.9475 402.5,24C 409.675,16.826 417.175,9.99263 425,3.5C 425.791,2.25501 426.291,0.921673 426.5,-0.5 Z"/></g>
<g><path style="opacity:0.037" fill="currentColor" d="M 463.5,-0.5 C 471.5,-0.5 479.5,-0.5 487.5,-0.5C 484.544,3.28673 481.044,6.62006 477,9.5C 475.562,10.9003 474.729,12.567 474.5,14.5C 472.319,14.2837 470.653,15.117 469.5,17C 469.833,17.3333 470.167,17.6667 470.5,18C 458.443,23.7402 446.11,27.9069 433.5,30.5C 435.624,29.542 437.624,28.3754 439.5,27C 439.167,26.6667 438.833,26.3333 438.5,26C 440.344,23.6571 442.344,21.4904 444.5,19.5C 445.086,19.7093 445.586,20.0426 446,20.5C 446.333,19.1667 446.667,17.8333 447,16.5C 447.333,17.1667 447.667,17.8333 448,18.5C 449.065,15.8482 450.898,14.0148 453.5,13C 453.167,12.6667 452.833,12.3333 452.5,12C 453.448,11.5172 454.448,11.3505 455.5,11.5C 455.351,10.448 455.517,9.44802 456,8.5C 458.014,6.15497 460.347,4.15497 463,2.5C 463.483,1.55198 463.649,0.551975 463.5,-0.5 Z"/></g>
<g><path style="opacity:0.004" fill="currentColor" d="M 489.5,-0.5 C 489.833,-0.5 490.167,-0.5 490.5,-0.5C 490.315,0.170143 489.981,0.170143 489.5,-0.5 Z"/></g>
<g><path style="opacity:0.029" fill="currentColor" d="M 519.5,-0.5 C 526.167,-0.5 532.833,-0.5 539.5,-0.5C 539.38,0.586173 538.713,1.25284 537.5,1.5C 530.548,4.10765 524.548,3.44098 519.5,-0.5 Z"/></g>
<g><path style="opacity:0.027" fill="currentColor" d="M 573.5,-0.5 C 581.5,-0.5 589.5,-0.5 597.5,-0.5C 589.385,1.27776 581.052,1.77776 572.5,1C 573.056,0.617425 573.389,0.117425 573.5,-0.5 Z"/></g>
<g><path style="opacity:0.99" fill="currentColor" d="M 75.5,248.5 C 76.5003,242.502 76.5003,236.335 75.5,230C 75.6667,227.833 75.8333,225.667 76,223.5C 221.812,150.677 367.979,78.5108 514.5,7C 518.464,5.15653 522.63,4.3232 527,4.5C 537.162,5.39349 547.328,6.22682 557.5,7C 564.5,10 571.5,13 578.5,16C 720.136,88.4691 860.469,160.302 999.5,231.5C 1001.88,232.351 1003.88,233.684 1005.5,235.5C 998.119,241.535 991.119,248.035 984.5,255C 835.407,330.129 687.24,404.296 540,477.5C 388.769,404 234.602,328.5 77.5,251C 76.6195,250.292 75.9528,249.458 75.5,248.5 Z"/></g>
<g><path style="opacity:0.004" fill="currentColor" d="M 502.5,8.5 C 502.897,7.47498 503.563,7.30831 504.5,8C 503.906,8.46434 503.239,8.63101 502.5,8.5 Z"/></g>
<g><path style="opacity:0.006" fill="currentColor" d="M 493.5,11.5 C 493.897,10.475 494.563,10.3083 495.5,11C 494.906,11.4643 494.239,11.631 493.5,11.5 Z"/></g>
<g><path style="opacity:0.004" fill="currentColor" d="M 71.5,246.5 C 72.8333,247.167 72.8333,247.167 71.5,246.5 Z"/></g>
<g><path style="opacity:0.004" fill="currentColor" d="M 75.5,248.5 C 74.8333,247.167 74.8333,247.167 75.5,248.5 Z"/></g>
<g><path style="opacity:0.005" fill="currentColor" d="M 39.5,335.5 C 40.2891,335.783 40.9558,336.283 41.5,337C 40.184,337.528 39.5173,337.028 39.5,335.5 Z"/></g>
<g><path style="opacity:0.991" fill="currentColor" d="M 64.5,351.5 C 203.707,414.768 342.707,478.601 481.5,543C 486.611,548.723 491.111,554.89 495,561.5C 496.985,723.496 498.485,885.496 499.5,1047.5C 497.345,1047.37 495.345,1047.87 493.5,1049C 488.833,1052.33 484.167,1055.67 479.5,1059C 477.5,1059.67 475.5,1059.67 473.5,1059C 342.833,999 212.167,939 81.5,879C 65.968,864.432 54.8013,846.932 48,826.5C 47.7848,672.166 48.1181,517.833 49,363.5C 50.6181,359.719 53.1181,356.719 56.5,354.5C 59.2763,353.485 61.9429,352.485 64.5,351.5 Z"/></g>
<g><path style="opacity:0.991" fill="currentColor" d="M 1002.5,352.5 C 1007.96,352.451 1012.13,354.785 1015,359.5C 1016.78,513.025 1018.62,666.525 1020.5,820C 1019.06,824.037 1018.22,828.203 1018,832.5C 1014.58,837.345 1012.25,842.678 1011,848.5C 1005.82,856.184 1000.15,863.518 994,870.5C 989.439,874.866 984.272,878.366 978.5,881C 848.866,939.819 719.533,999.152 590.5,1059C 586.422,1058.65 582.422,1057.65 578.5,1056C 575.051,1053.52 571.884,1050.69 569,1047.5C 569.519,885.166 570.519,722.833 572,560.5C 572.5,559.5 573,558.5 573.5,557.5C 573.154,556.304 572.654,556.304 572,557.5C 571.19,552.743 571.524,548.076 573,543.5C 577.066,541.571 581.233,540.905 585.5,541.5C 585.736,540.753 586.07,539.92 586.5,539C 725.375,477.058 864.042,414.891 1002.5,352.5 Z"/></g>
<g><path style="opacity:0.01" fill="currentColor" d="M 1017.5,857.5 C 1018.5,857.5 1019.5,857.5 1020.5,857.5C 1020.71,859.144 1020.38,860.644 1019.5,862C 1016.79,863.069 1014.13,864.236 1011.5,865.5C 1010.07,862.581 1011.07,861.248 1014.5,861.5C 1014.65,858.282 1015.48,857.949 1017,860.5C 1017.48,859.552 1017.65,858.552 1017.5,857.5 Z"/></g>
<g><path style="opacity:0.004" fill="currentColor" d="M 1007.5,865.5 C 1008.83,866.167 1008.83,866.167 1007.5,865.5 Z"/></g>
<g><path style="opacity:0.004" fill="currentColor" d="M 1007.5,866.5 C 1006.83,867.167 1006.83,867.167 1007.5,866.5 Z"/></g>
</svg>
